<svg xmlns="http://www.w3.org/2000/svg" viewBox="0 0 57.129 75">
  <defs>
    <style>
      .cls-1 {
        fill: #ffe5d4;
      }
    </style>
  </defs>
  <g id="spring-onion" transform="translate(0 0)">
    <path id="Path_1" data-name="Path 1" class="cls-1" d="M171.592,0H167.2A2.2,2.2,0,0,0,165,2.2V5.662a35.537,35.537,0,0,1,4.381,4.187,35.684,35.684,0,0,1,4.408-4.229V2.2a2.2,2.2,0,0,0-2.2-2.2Zm0,0" transform="translate(-140.83 0)"/>
    <path id="Path_2" data-name="Path 2" class="cls-1" d="M4.562,15.058c-.028,0-.056,0-.084,0l-2.2-.084A2.194,2.194,0,0,0,0,17.165V21.56a2.2,2.2,0,0,0,2.1,2.195l2.2.1A21.923,21.923,0,0,1,21.4,35.291a35.163,35.163,0,0,1,4.427-9.139A30.685,30.685,0,0,0,4.562,15.058Zm0,0" transform="translate(0 -12.771)"/>
    <path id="Path_3" data-name="Path 3" class="cls-1" d="M126.125,306.966a11.743,11.743,0,0,0,10.368-6.21c3.548-6.631-.226-11.93-2.616-15.337-2.165-3.075-3.358-4.768-3.358-9.508v-4.134l-8.8,4.4c-.047,4.526-1.229,6.232-3.411,9.334-2.221,3.154-6.119,8.537-2.583,15.21A11.777,11.777,0,0,0,126.125,306.966Zm0,0" transform="translate(-97.561 -231.966)"/>
    <path id="Path_4" data-name="Path 4" class="cls-1" d="M195.679,14.97s-2.253.086-2.281.088A30.891,30.891,0,0,0,165,45.73v6.333l8.789-4.395V45.73a22.1,22.1,0,0,1,19.874-21.876l2.2-.1a2.2,2.2,0,0,0,2.1-2.195V17.165a2.194,2.194,0,0,0-2.281-2.195Zm0,0" transform="translate(-140.831 -12.771)"/>
  </g>
</svg>
