<svg xmlns="http://www.w3.org/2000/svg" viewBox="0 0 640.471 130.276"><defs><style>.a{fill:#6dc82a;}.b{fill:#5eac24;}.c{fill:#4e901e;}.d{fill:#91dc5a;}.e{fill:#cc7400;}.f{fill:#aa6100;}.g{fill:#7e5d40;}.h{fill:#684d34;}.i{fill:#a8d32a;}.j{fill:#93bf00;}.k{fill:#b9dd39;}.l{fill:#c83c50;}.m{fill:#703700;}.n{fill:#9a4c00;}.o{fill:#ffaa20;}.p{fill:#67bc00;}.q{fill:#ff8900;}.r{fill:#5eac00;}.s{font-size:26px;font-family:Candara-Italic, Candara;font-style:italic;opacity:0.4;}</style></defs><g transform="translate(-718.842 -761)"><g transform="translate(412 761)"><g transform="translate(568.094 0)"><path class="a" d="M111.808,40.731a3.651,3.651,0,0,1-2.88,1.133,49.259,49.259,0,0,1-18.381-5.542c-8.6-4.636-18.986-14.044-19.589-32.534a3.648,3.648,0,0,1,1.066-2.7A3.87,3.87,0,0,1,74.933,0h0a39.937,39.937,0,0,1,18.8,5.667,37.012,37.012,0,0,1,11.984,11.491,47.23,47.23,0,0,1,7.069,20.635A3.65,3.65,0,0,1,111.808,40.731Z" transform="translate(-61.431)"/><path class="b" d="M222.988,89.963a42.2,42.2,0,0,0-3.746,9.586,89.178,89.178,0,0,0-3.154,12.9,46.4,46.4,0,0,0,10,2.038,3.649,3.649,0,0,0,3.854-4.069A47.344,47.344,0,0,0,222.988,89.963Z" transform="translate(-178.591 -72.624)"/><path class="c" d="M130.346,54.6l-7.861-7.666-2.073-10.33a1.512,1.512,0,0,0-2.964.595l1.2,6-4.336-4.228-2.1-10.472a1.512,1.512,0,0,0-2.964.595l1.232,6.139-10.117-9.865a1.512,1.512,0,1,0-2.111,2.164l11.124,10.848-7.76-.133a1.512,1.512,0,1,0-.052,3.023l10.968.188,5.16,5.032-7.879-.134a1.512,1.512,0,0,0-.052,3.023l11.086.189,7.384,7.2a1.512,1.512,0,0,0,2.111-2.165Z" transform="translate(-83.099 -20.133)"/><path class="d" d="M282.294,1.14a3.651,3.651,0,0,0-2.88-1.133,49.259,49.259,0,0,0-18.381,5.542,35.7,35.7,0,0,0-18.3,23.093c-1.712,5.041-5.482,18.71-4.6,39.292a3.314,3.314,0,0,0,3.309,3.173q.072,0,.144,0a3.315,3.315,0,0,0,3.17-3.454,119.786,119.786,0,0,1,1.552-25.812A40.728,40.728,0,0,0,264.215,36.2,37.013,37.013,0,0,0,276.2,24.713a47.23,47.23,0,0,0,7.069-20.635A3.649,3.649,0,0,0,282.294,1.14Z" transform="translate(-196.279 0)"/><path class="b" d="M306.689,25.4a1.512,1.512,0,0,0-2.138-.027l-10.116,9.865,1.232-6.139A1.512,1.512,0,0,0,292.7,28.5l-2.1,10.472L286.266,43.2l1.2-6a1.512,1.512,0,0,0-2.964-.595l-2.073,10.33L274.571,54.6a1.512,1.512,0,0,0,2.111,2.164l7.384-7.2,11.087-.189a1.512,1.512,0,0,0-.025-3.023H295.1l-7.879.134,5.16-5.032,10.968-.188a1.512,1.512,0,0,0-.025-3.023H303.3l-7.76.133,11.124-10.848A1.511,1.511,0,0,0,306.689,25.4Z" transform="translate(-225.434 -20.133)"/><path class="e" d="M103.962,325.9a7.915,7.915,0,0,0-4.159,1.173,14.286,14.286,0,0,0-15.759-9.947,18.894,18.894,0,0,0-34.633,0,14.286,14.286,0,0,0-15.759,9.947,7.956,7.956,0,1,0,1.767,12.088,14.276,14.276,0,0,0,22.135,2.04,18.892,18.892,0,0,0,18.349,0,14.276,14.276,0,0,0,22.135-2.04,7.955,7.955,0,1,0,5.925-13.261Z" transform="translate(-21.538 -246.854)"/><g transform="translate(0 58.936)"><path class="f" d="M77.112,313.523a18.887,18.887,0,0,1,5.4.789,18.892,18.892,0,0,0-33.107,2.812,14.285,14.285,0,0,0-15.759,9.947,7.956,7.956,0,1,0,1.767,12.088,14.276,14.276,0,0,0,22.135,2.04,18.83,18.83,0,0,0,3.771,1.591,18.891,18.891,0,0,1,15.789-29.267Z" transform="translate(-21.537 -305.789)"/><ellipse class="f" cx="3.425" cy="3.425" rx="3.425" ry="3.425" transform="translate(49.278 18.783)"/><ellipse class="f" cx="3.425" cy="3.425" rx="3.425" ry="3.425" transform="translate(63.088 26.848)"/><ellipse class="f" cx="1.318" cy="1.318" rx="1.318" ry="1.318" transform="translate(63.089 17.236)"/><ellipse class="f" cx="1.318" cy="1.318" rx="1.318" ry="1.318" transform="translate(43.872 30.274)"/><ellipse class="f" cx="1.318" cy="1.318" rx="1.318" ry="1.318" transform="translate(47.959 12.31)"/><ellipse class="f" cx="1.318" cy="1.318" rx="1.318" ry="1.318" transform="translate(76.318 24.316)"/></g><g transform="translate(66.514 57.713)"><ellipse class="e" cx="3.425" cy="3.425" rx="3.425" ry="3.425"/><ellipse class="e" cx="1.318" cy="1.318" rx="1.318" ry="1.318" transform="translate(9.804 9.766)"/><ellipse class="e" cx="1.318" cy="1.318" rx="1.318" ry="1.318" transform="translate(9.804 3.425)"/></g><g transform="translate(10.532 56.504)"><ellipse class="f" cx="3.425" cy="3.425" rx="3.425" ry="3.425" transform="translate(3.58)"/><ellipse class="f" cx="1.318" cy="1.318" rx="1.318" ry="1.318" transform="translate(0 9.657)"/></g></g><g transform="translate(306.842 9.868)"><path class="g" d="M62.559,12.905c2.729-3.561,2.729-6.8,2.729-10.593A2.453,2.453,0,0,0,62.79,0c-3.562.046-6.707,0-10.176,2.544A75.666,75.666,0,0,0,32.909.139,75.668,75.668,0,0,0,13.2,2.544C9.781.046,6.682,0,3.027,0a2.4,2.4,0,0,0-2.5,2.359c0,3.747,0,6.985,2.729,10.546-4.9,21.88-3.746,36.481,0,53.133C.529,69.6.529,72.838.529,76.631a2.52,2.52,0,0,0,2.637,2.313c3.515,0,6.614-.046,10.037-2.544a77.757,77.757,0,0,0,19.705,2.359A77.755,77.755,0,0,0,52.614,76.4c3.423,2.5,6.522,2.544,10.176,2.544a2.43,2.43,0,0,0,2.5-2.359c0-3.747,0-6.985-2.729-10.546C66.305,49.387,67.462,34.785,62.559,12.905Zm0,0" transform="translate(-0.001 0)"/><path class="h" d="M243.08,66.039c2.729,3.561,2.729,6.8,2.729,10.546a2.43,2.43,0,0,1-2.5,2.359c-3.654,0-6.753-.046-10.176-2.544a77.755,77.755,0,0,1-19.705,2.359V.139a75.666,75.666,0,0,1,19.705,2.4C236.6,0,239.75.046,243.312,0a2.453,2.453,0,0,1,2.5,2.313c0,3.793,0,7.031-2.729,10.593C247.983,34.785,246.827,49.387,243.08,66.039Zm0,0" transform="translate(-180.522)"/><path class="i" d="M134.994,268.877a11.564,11.564,0,0,1-11.564-11.564A2.313,2.313,0,0,1,125.743,255a11.564,11.564,0,0,1,11.564,11.564A2.313,2.313,0,0,1,134.994,268.877Zm0,0" transform="translate(-104.399 -215.682)"/><path class="i" d="M134.994,148.877a11.564,11.564,0,0,1-11.564-11.564A2.313,2.313,0,0,1,125.743,135a11.564,11.564,0,0,1,11.564,11.564A2.313,2.313,0,0,1,134.994,148.877Zm0,0" transform="translate(-104.399 -114.185)"/><path class="j" d="M215.743,268.877a11.564,11.564,0,0,0,11.564-11.564A2.313,2.313,0,0,0,224.994,255a11.564,11.564,0,0,0-11.564,11.564A2.313,2.313,0,0,0,215.743,268.877Zm0,0" transform="translate(-180.522 -215.682)"/><path class="j" d="M215.743,148.877a11.564,11.564,0,0,0,11.564-11.564A2.313,2.313,0,0,0,224.994,135a11.564,11.564,0,0,0-11.564,11.564A2.313,2.313,0,0,0,215.743,148.877Zm0,0" transform="translate(-180.522 -114.185)"/><path class="k" d="M203.056,122.313v41.939a2.313,2.313,0,0,1-4.626,0V122.313a2.313,2.313,0,1,1,4.626,0Zm0,0" transform="translate(-167.835 -101.497)"/><path class="i" d="M215.743,164.252V122.313A2.29,2.29,0,0,0,213.43,120v46.565A2.29,2.29,0,0,0,215.743,164.252Zm0,0" transform="translate(-180.522 -101.497)"/></g><g transform="translate(198.162 42.433)"><g transform="translate(267.044 0)"><path class="l" d="M60.408,143.4l-13.5-6.2a2.055,2.055,0,0,0-1.231-.089q-.667.142-.668.514v3.969H1.125a1.794,1.794,0,0,0-.809.159q-.316.159-.316.407v3.4q0,.248.316.407a1.8,1.8,0,0,0,.809.159H45.007v3.969c0,.237.224.408.668.514a1.969,1.969,0,0,0,1.231-.106l13.5-6.272q.352-.177.351-.425Q60.76,143.573,60.408,143.4Z" transform="translate(-10 -137.052)"/></g><g transform="translate(556.382 0)"><path class="l" d="M60.408,143.4l-13.5-6.2a2.055,2.055,0,0,0-1.231-.089q-.667.142-.668.514v3.969H1.125a1.794,1.794,0,0,0-.809.159q-.316.159-.316.407v3.4q0,.248.316.407a1.8,1.8,0,0,0,.809.159H45.007v3.969c0,.237.224.408.668.514a1.969,1.969,0,0,0,1.231-.106l13.5-6.272q.352-.177.351-.425Q60.76,143.573,60.408,143.4Z" transform="translate(-10 -137.052)"/></g></g><g transform="translate(863.813 0)"><path class="m" d="M309.161,198.5a1.071,1.071,0,0,1,0,.121l-.189.27-22.363,31.778H279.54l22.176-31.516,3.246-4.614Zm0,0" transform="translate(-225.663 -157.048)"/><path class="n" d="M29.651,228.273H22.582L.225,196.5,0,196.184a.282.282,0,0,1,0-.062l3.825-4.553,3.621,5.146Zm0,0" transform="translate(0.001 -154.648)"/><path class="n" d="M118.007,232.712,104.5,197.07l-4.819,3.6,12.145,32.043Zm0,0" transform="translate(-80.468 -159.088)"/><path class="m" d="M245.261,233.747l12.1-32.243-4.989-3.152-13.3,35.4Zm0,0" transform="translate(-192.999 -160.122)"/><path class="n" d="M201.789,190h5.782v37.005h-5.782Zm0,0" transform="translate(-162.897 -153.38)"/><path class="o" d="M105.539,365h42.884v28.332H105.539Zm0,0" transform="translate(-85.198 -294.652)"/><path class="p" d="M83.5,41.456a1.085,1.085,0,0,1,0,.121l-.189.27-.162.083A10.956,10.956,0,0,0,63.363,44.1l-.559.023a10.957,10.957,0,0,0-20.818.053l-.237.01-.231.01a10.958,10.958,0,0,0-20.866.053l-.422.018c-.02-.022-.041-.043-.06-.062A10.956,10.956,0,0,0,.359,41.917l-.135-.062L0,41.537a.282.282,0,0,1,0-.062,41.749,41.749,0,0,1,71.27-29.246A41.463,41.463,0,0,1,83.5,41.456Zm0,0" transform="translate(0.001 0)"/><path class="m" d="M216.617,190h2.924v37.005h-2.924Zm0,0" transform="translate(-174.867 -153.38)"/><path class="q" d="M216.617,365h21.475v28.332H216.617Zm0,0" transform="translate(-174.867 -294.652)"/><path class="r" d="M258.366,41.456a1.1,1.1,0,0,1,0,.121l-.189.27-.162.083A10.956,10.956,0,0,0,238.231,44.1l-.559.023a10.957,10.957,0,0,0-20.818.053l-.237.01V0a41.75,41.75,0,0,1,41.748,41.455Zm0,0" transform="translate(-174.868 0)"/></g></g><g transform="translate(434.11 859.276)"><text class="s" transform="translate(315.123 25)"><tspan x="-24.458" y="0">seed</tspan></text><text class="s" transform="translate(593.246 25)"><tspan x="-25.181" y="0">raise</tspan></text><text class="s" transform="translate(884.119 25)"><tspan x="-21.849" y="0">ship</tspan></text></g></g></svg>