<svg xmlns="http://www.w3.org/2000/svg" xmlns:xlink="http://www.w3.org/1999/xlink" viewBox="0 0 776.681 564.761"><defs><style>.a,.c{fill:#6c63ff;}.a,.b,.i{opacity:0.1;}.d{fill:url(#a);}.e{fill:#cbcdda;}.f,.o{opacity:0.05;}.g{fill:url(#b);}.h{fill:#7fb72b;}.j{fill:#936868;}.k{fill:#d42a01;}.l{fill:#feea59;}.m{fill:#e38712;}.n,.o{fill:#f38e0d;}.p{fill:#ffb9b9;}.q{fill:#4c4c78;}.r{fill:#b96b6b;}</style><linearGradient id="a" x1="0.5" y1="1" x2="0.5" gradientUnits="objectBoundingBox"><stop offset="0" stop-color="gray" stop-opacity="0.251"/><stop offset="0.54" stop-color="gray" stop-opacity="0.122"/><stop offset="1" stop-color="gray" stop-opacity="0.102"/></linearGradient><linearGradient id="b" x1="0.5" y1="1" x2="0.5" y2="0" xlink:href="#a"/></defs><g transform="translate(0.007 0.003)"><path class="a" d="M370.283,800.486c-5.482,1.371-11.156-.226-16.769-.295s-12.164,2.3-13.541,7.737c-1.85,7.312,6.7,12.829,14.021,14.645,28.405,7.072,58.476-2.1,87.511,1.638,12.232,1.576,24.136,5.434,36.437,6.359,28.159,2.1,55.666-11.287,83.866-9.772,14.124.754,27.857,5.242,41.981,5.962,33.8,1.72,67.158-18.119,100.237-11.013,9.368,1.987,18.112,6.1,27.37,8.47,23.409,6,48.046.685,71.613-4.694,4.681-1.062,10.32-3.125,10.9-7.888.637-5.256-5.4-8.552-10.416-10.231-54.9-18.359-113.682-28.1-170.945-19.6-13.021,1.932-26.041,4.8-39.2,4.612-29.152-.418-55.947-15.631-84.571-21.189-54.234-10.54-108.461,14.048-158.247,38.006" transform="translate(-129.756 -266.037)"/><g class="b" transform="translate(-0.007 -0.003)"><path class="c" d="M66.729,81.5c8.223,11.808,6.085,28.46-.206,41.4s-16.07,23.684-23.211,36.135c-14.24,24.842-14.734,61.8,8.223,78.6,4.948,3.625,10.869,6.284,14.2,11.52,4.591,7.223,2.741,16.728.685,25.068l-.164.685c-7.71,31.571,11.766,63.65,42.707,70.091,17.132,3.57,32.962,10.588,45.469,23.3,10.93,11.1,18.064,25.465,25.924,39.061C194.556,431.9,211.983,455,234.494,471.6s50.65,26.26,77.938,22.4c62.361-8.827,101.354-81.844,163.51-91.918,4.475-.726,9.3-1.049,13.329,1.131,5.695,3.077,8.066,10.026,10.965,15.974,15.234,31.523,52.459,42.94,85.565,51.116l62.252,15.357c33.8,8.34,69.214,16.68,102.759,7.716s63.787-41.391,58.613-76.917c-4.256-29.186-30.393-52.548-30.338-82.029.034-20.38,12.863-38.822,13.219-59.2.37-21.2-12.774-40.165-27.206-55.33-41.542-43.66-96.975-69.536-151.024-94.412C575.994,107.955,537.728,90.35,497.522,79.1c-99.106-27.658-203.579-15.186-306.05-14.919-17.626.048-36.074-.137-52.891-6.462C125.677,52.865,114.6,39.7,100.842,38.09c-10.5-1.22-25.184,5.071-33.579,11.163C51.844,60.389,57.162,67.8,66.729,81.5Z" transform="translate(-33.323 -37.937)"/></g><path class="d" d="M1004.709,292.647a6,6,0,0,0,0-.809c-.247-3.344-3.426-5.763-6.579-7.052s-6.675-1.919-9.464-3.872c-4.715-3.3-6.168-9.478-6.592-15.124-.13-1.754-.185-3.509-.192-5.27s.11-3.707.274-5.558a92.618,92.618,0,0,0,.685-9.327A17.922,17.922,0,0,0,981.2,237.1c-2.8-5.523-9.073-8.347-14.884-10.752a15.663,15.663,0,0,0-14.432-.425c-3.851,1.3-7.757,2.995-11.739,3.879-2.234.493-4.681.123-6.853.911-4.262,1.562-5.174,5.393-5.105,9.594v.795c-.425-.391-.863-.761-1.309-1.117l-.26-.206a15.842,15.842,0,0,0-1.46-1.048l-.247-.158a24.559,24.559,0,0,0-3.283-1.789l-.171-.075q-.857-.377-1.741-.685l-.11-.041a24.984,24.984,0,0,0-3.742-.987h0a24.924,24.924,0,0,0-22.293,6.983l-4.708,4.8h0c-21.4-4.8-22.361,13.795-22.361,13.795l.158-.034-.055.13c.685,3.214,25.548,52.171,25.548,52.171a286.955,286.955,0,0,1,23.423,19.1s-7.387,3.913-4.646,21.833c3.351,21.929-1.686,53.144-1.686,53.144v20.189l.946-.26c-.116.685-.24,1.371-.356,2.159a115.185,115.185,0,0,0-.589,30.646c2.536,21.422,12.664,50.67,12.664,50.67s3.8,10.279,4.646,18.537a17.286,17.286,0,0,0,1.083,4.763,37.868,37.868,0,0,1,2.96,14.3,101.448,101.448,0,0,0,6.51,36.142c4.283,11.019,5.866,17.475,6.339,21.244-3.036,4.016-7,8.395-10.135,8.833-5.907.822-17.31,1.645-9.711,11.533a7,7,0,0,0,.884.939c-5.77.932-12.116,2.988-5.948,11.006,7.6,9.889,52.349,5.359,52.349,5.359s.288-5.482,0-11.527c3.139-.219,5.078-.418,5.078-.418s1.268-23.9-4.221-26.781a11.579,11.579,0,0,0-2.96.726c-.589-3.3-1.042-7.408-1.323-10.451l2.172-.164V558.539s-2.536-22.245-11.821-32.133a19.981,19.981,0,0,1-3.036-4.112c.068-2.858.075-6.853.041-11.465a9.518,9.518,0,0,1,1.309-1.727s5.064-6.168,22.375-45.318c10.211-23.087,7.936-36.416,4.352-43.475-.685-2.508-2.467-9.669-4.8-22.854-2.954-16.892.425-33.374.425-33.374s10.965-28.426,16.043-39.959a18.771,18.771,0,0,0,1.425-8.806,8.435,8.435,0,0,0,2.529-4.112l5.2-13.877a11.116,11.116,0,0,0,1.014-4.66ZM934.069,267.7a21.107,21.107,0,0,0,1.885,2.508h0s-.774-.809-2.056-2.111C933.967,267.977,934,267.826,934.069,267.7Zm-25.575,28.487,14.316-14.624c4.948,4.523,10.245,9.142,14.672,12.945a42.386,42.386,0,0,1-1.672,5.736,7.784,7.784,0,0,1-7.538-.418c-4.879-2.645-13.918-3.426-19.777-3.639Z" transform="translate(-295.54 -96.614)"/><path class="e" d="M916.337,247.41s-10.615,6.126-7.353,14.7c0,0,11.026,3.269,15.515,11.437S963.7,311.114,963.7,311.114l25.273-12.664s-8.806-11.76-36.663-19.969c0,0-16.447-17.605-22.142-20.867S916.337,247.41,916.337,247.41Z" transform="translate(-308.714 -103.864)"/><path class="f" d="M916.337,247.41s-10.615,6.126-7.353,14.7c0,0,11.026,3.269,15.515,11.437S963.7,311.114,963.7,311.114l25.273-12.664s-8.806-11.76-36.663-19.969c0,0-16.447-17.605-22.142-20.867S916.337,247.41,916.337,247.41Z" transform="translate(-308.714 -103.864)"/><path class="g" d="M661.838,508.66a53.19,53.19,0,0,0-9.08-8.456q1.049-.761,2.056-1.528c8.648-6.428,16.056-13.02,17.646-17.756,4.249-12.561,47.813-35.587,47.813-35.587s-44.626,8.374-68-5.236c-13.946-8.121-35.457-9.532-50.54-9.347l.11-.26.206-.452c.117-.254.233-.5.356-.754s.2-.411.308-.617l.089-.164q.236-.452.493-.9.627-1.11,1.336-2.22v-.041a59.762,59.762,0,0,1,3.954-5.4l.055-.069c1.131-1.371,2.309-2.741,3.495-4l.069-.075.836-.884.137-.137c1.131-1.186,2.261-2.309,3.358-3.358l.254-.24.685-.624.315-.295.61-.569.322-.295.911-.822.493-.439.37-.322.541-.473.274-.233.685-.6.062-.055c2.213-1.891,3.673-2.995,3.673-2.995H625.7a20.152,20.152,0,0,1-2.2,1.371l-.1.048-.685.343-.192.089-.61.274-.343.137-.48.2-.466.171-.377.137-.589.2-.274.089-.754.226-.123.034-.891.24h0c-15.5,4-37.533-1.912-39.555-2.474l-.13-.034h0s-8.854-1.83-20.326-3.474h0c5.318-10.882,10.643-21.121,15.577-30.235a46.223,46.223,0,0,0,20.559,21.724c.343-.384.685-.781.973-1.179,1.028.589,1.638.87,1.638.87a26.04,26.04,0,0,0,5.8-11.513,42.781,42.781,0,0,0,9.9,7.017q.445-.5.857-1.021c.418.219.644.329.644.329,5.736-6.462,7.257-14.809,6.613-23.3a47.107,47.107,0,0,0,33.134.144v-.13c.987-.336,1.528-.569,1.528-.569-.863-6.353-4.112-11.65-8.525-16.049,20.476.425,31.523-12.267,31.523-12.267l-.117-.158c.843-.788,1.268-1.275,1.268-1.275a36.436,36.436,0,0,0-10.06-9.594,38.979,38.979,0,0,0,13.4-12.692c-.233-.219-.48-.432-.685-.644.514-.74.768-1.186.768-1.186-.514-.487-1.049-.946-1.583-1.371.349-.528.521-.829.521-.829-8.223-7.737-19.133-10.526-29.954-10.848a45.5,45.5,0,0,0,11.479-26.178c-8.223-2.679-16.625-.829-24.273,3.022a46.292,46.292,0,0,0-3-20.915,38.705,38.705,0,0,0,6.736,4.167q.439-.507.843-1.035c.418.212.685.315.685.315,5.633-6.551,7.017-14.919,6.243-23.368a47.107,47.107,0,0,0,33.134-.37v-.13c.98-.35,1.515-.589,1.515-.589-.966-6.339-4.269-11.588-8.779-15.919,20.476.11,31.325-12.753,31.325-12.753l-.123-.158c.829-.8,1.247-1.3,1.247-1.3a36.464,36.464,0,0,0-10.211-9.4,38.935,38.935,0,0,0,13.192-12.9c-.24-.219-.487-.425-.726-.637.5-.754.747-1.2.747-1.2-.521-.48-1.062-.932-1.6-1.371.343-.535.514-.836.514-.836-8.34-7.607-19.3-10.231-30.153-10.382a45.476,45.476,0,0,0,10.965-26.329c-8.292-2.556-16.632-.569-24.218,3.426A45.14,45.14,0,0,0,662.8,118.9c-.562.117-1.11.254-1.652.4-.13-.274-.206-.411-.206-.411h0c-.219-.48-.356-.74-.356-.74-9.409,1.9-16.159,8.676-20.956,16.817-.356.6-.685,1.213-1.035,1.83a46.113,46.113,0,0,0-17.749-21.436c-7.01,6.613-9.032,16.015-8.648,25.527,0,.644.068,1.288.11,1.933a47.045,47.045,0,0,0-28.042-9.964,26.9,26.9,0,0,0,1.227,16.447,46.662,46.662,0,0,0-20.524,1.432v.267c-.98.26-1.521.452-1.521.452.535,7.963,4.8,14.549,10.67,19.873a46.819,46.819,0,0,0-24.232,11.328q.343.6.685,1.172c-.48.418-.726.685-.726.685,4.187,7.394,11.513,11.6,19.688,13.884a46.01,46.01,0,0,0-18.647,21.326c.2.137.4.267.6.4-.418.9-.61,1.432-.61,1.432,6.983,4.975,15.453,5.736,23.862,4.386a46.714,46.714,0,0,0-1.686,14.878c-5.16,7.243-10.4,14.823-15.563,22.491-.932-.055-1.453-.048-1.453-.048a24.662,24.662,0,0,0-.637,3.159c-2.851,4.249-5.674,8.511-8.45,12.74a42.085,42.085,0,0,0-10.492,1.693v.267c-.98.247-1.528.425-1.528.425v.329c-4.591-6.2-11.019-10.841-17.948-14.3a46.278,46.278,0,0,0,21.683-18.887c-6.312-5.88-14.693-7.709-23.3-7.422a45.167,45.167,0,0,0,6.36-22.011c-.555-.144-1.11-.254-1.665-.356v-.459h0v-.815c-9.3-2.371-18.379.8-26.329,6.037-.589.391-1.172.788-1.747,1.2a45.38,45.38,0,0,0-6.387-26.939c-9.251,2.912-15.255,10.478-19.147,19.188-.267.589-.514,1.186-.761,1.789a46.27,46.27,0,0,0-20.751-21.086,27.133,27.133,0,0,0-6.236,15.316,46.442,46.442,0,0,0-19.078-7.593l-.1.254c-.994-.192-1.569-.254-1.569-.254-3.07,7.387-2.152,15.159.685,22.484a47.285,47.285,0,0,0-26.877-.3,11.559,11.559,0,0,0,.117,1.371c-.617.171-.946.281-.946.281.466,8.456,5.167,15.405,11.5,20.99a46.867,46.867,0,0,0-26.137,11.1c.117.212.24.411.356.617-.774.63-1.186,1.021-1.186,1.021,4.057,7.49,11.328,11.842,19.476,14.268a45.188,45.188,0,0,0-10.094,18.133c.617.329,1.234.624,1.864.9-.137.473-.2.74-.2.74,8.737,4.722,18.736,3.6,28.028.178a45.2,45.2,0,0,0,8.785,33.278,11.622,11.622,0,0,0,1.371-.685c.685.959,1.1,1.473,1.1,1.473a26.507,26.507,0,0,0,10.279-8,41.987,41.987,0,0,0,5.941,10.5q.624-.267,1.22-.569c.281.37.445.569.445.569a26.493,26.493,0,0,0,10.279-7.963,806.418,806.418,0,0,1-.569,86.943c-1.371,20.751-3.886,41.892-8.223,60.71-7.86-32.517-18-71.907-28.254-104.671-11.184-35.724-32.729-69.838-52.719-101.615-14.261-22.663-32.325-50.465-49.265-73.895,15.721,5.222,28.1-.26,28.1-.26a.444.444,0,0,0-.041-.192c1.1-.356,1.7-.624,1.7-.624a35.812,35.812,0,0,0-4.982-12.87,39.616,39.616,0,0,0,17.605-5.88c-.117-.3-.247-.589-.37-.884.788-.459,1.206-.754,1.206-.754-.26-.685-.541-1.3-.836-1.926.548-.329.836-.535.836-.535-4.112-10.444-12.781-17.543-22.436-22.361A46.278,46.278,0,0,0,357.4,128.236c-6.311-5.88-14.693-7.71-23.3-7.422A45.167,45.167,0,0,0,340.458,98.8c-.555-.144-1.11-.254-1.665-.356v-.459h0v-.815c-9.3-2.371-18.379.8-26.329,6.037-.589.391-1.172.788-1.747,1.2A45.38,45.38,0,0,0,304.33,77.47c-9.251,2.912-15.255,10.478-19.147,19.188-.267.589-.514,1.186-.761,1.789A46.271,46.271,0,0,0,263.672,77.36a27.134,27.134,0,0,0-6.236,15.316,46.442,46.442,0,0,0-19.078-7.593l-.1.254c-.994-.192-1.569-.254-1.569-.254-3.07,7.387-2.152,15.159.685,22.484a47.285,47.285,0,0,0-26.877-.3,11.555,11.555,0,0,0,.117,1.371c-.617.171-.946.281-.946.281.466,8.456,5.167,15.405,11.5,20.99a46.867,46.867,0,0,0-26.185,11.081c.117.212.24.411.356.617-.774.63-1.186,1.021-1.186,1.021,4.057,7.49,11.328,11.842,19.476,14.268a45.188,45.188,0,0,0-10.094,18.133c.617.329,1.234.624,1.864.9-.137.473-.2.74-.2.74,8.737,4.722,18.736,3.6,28.028.178a45.2,45.2,0,0,0,8.785,33.278,11.616,11.616,0,0,0,1.371-.685c.685.959,1.1,1.473,1.1,1.473a26.507,26.507,0,0,0,10.279-8,41.982,41.982,0,0,0,5.941,10.5q.624-.267,1.22-.569c.281.37.445.569.445.569,7.977-3.426,12.952-10.362,16.029-18.29a47.043,47.043,0,0,0,29.056,13.952c20.833,29.426,46.127,67.665,62.2,100.683,0,0,33.065,63.889,54.138,130.856C413.085,429.31,398.44,412.9,395.158,404.5c-5.311-13.61-71.188,0-71.188,0h0l-.13.034c-2.056.562-24.054,6.469-39.555,2.474h0l-.877-.24-.123-.034-.754-.226-.274-.089-.589-.2-.377-.137-.466-.171-.48-.2-.343-.137-.61-.274-.192-.089-.685-.343-.1-.048a20.154,20.154,0,0,1-2.2-1.371h-.034a117.356,117.356,0,0,1,16.447,15.673l.158.192.863,1.055.226.281q.425.535.836,1.069l.164.212q.473.63.932,1.268l.226.329q.322.452.63.911l.356.535.459.685.377.6.384.685c.123.212.254.425.37.637l.048.089c.2.363.4.72.582,1.083l.192.391q.24.48.452.953l.158.35.123.295c-15.076-.185-36.594,1.227-50.54,9.347-23.375,13.61-68,5.236-68,5.236s43.564,23.026,47.813,35.587c1.7,5.016,9.985,12.191,19.346,19.01l2.015,1.453a52.577,52.577,0,0,0-7.538,7.278C221.972,533.783,171,558.871,171,558.871h.151l.439.041.754.069,1.371.13h.233c10.91,1.028,49.341,4.982,71.27,11.575.788.24,1.556.48,2.3.72,6.373,2.09,42.488-1.048,66.939-8.374.685-.206,1.371-.391,2.056-.569l.61-.151q.768-.185,1.542-.349l.61-.13c.685-.137,1.371-.267,2.056-.377h.041c.685-.117,1.371-.212,2.056-.3l.624-.075,1.5-.164.651-.062q.932-.082,1.857-.13h.2c.685-.034,1.323-.062,1.987-.075h4.153l.959.034,1.371.069.98.068.85.069,1.09.1.514.055,1.172.123.836.1.63.082.925.13.514.075h0a2.74,2.74,0,0,1-.082.452s.884,4.927,6.682,9.745c-9.82,2.823-17.968,6.072-24.054,9.594-.363.2-.685.411-1.042.617.247,0,.487-.055.747-.075s.459,0,.685,0H577.685a5.66,5.66,0,0,1,.733.075,6.048,6.048,0,0,1,.6.1,4.3,4.3,0,0,1,.637.137q-.685-.439-1.37-.85c-7.607-4.441-18.434-8.381-31.695-11.65,3.982-2.056,6.2-4.386,7.127-6.853.781-.178,1.576-.349,2.405-.514a91.018,91.018,0,0,1,9.813-1.446l1.371-.11.685-.055a64.616,64.616,0,0,1,22.615,2.275c24.437,7.326,60.559,10.464,66.939,8.374.74-.247,1.508-.487,2.3-.72,21.881-6.586,60.305-10.547,71.27-11.575h.233l1.371-.13.754-.068.439-.041h.151S683.089,533.783,661.838,508.66Zm-29.3-258.9-.343.048a1.878,1.878,0,0,1,.068-.329Zm-103.4,57.119c-1.5.809-2.823,1.617-3.934,2.364a36.641,36.641,0,0,0-4.167-9.313,42.119,42.119,0,0,0,15.446-4.6C533.956,299.27,531.5,303.135,529.139,306.877Zm4.612,19.263a44.318,44.318,0,0,0,6.517,2.467,46.058,46.058,0,0,0-13.541,11.9c2.166-4.749,4.523-9.553,7.031-14.371ZM466.058,412.9c1.932-31.928,3.111-66.473,1.467-90.794a46.915,46.915,0,0,0,22.142,7.538l.034-.13c1.035.11,1.624.13,1.624.13,1.953-6.113,1.329-12.253-.795-18.1a43.66,43.66,0,0,0,30.454,3.214,24.929,24.929,0,0,0,1.631,2.529c-13.26,21.244-22.286,36.492-22.286,36.492-9.19,13.822-24.335,62.156-38.1,110.7C463.495,449.986,464.907,431.894,466.058,412.9Zm40.658-8.374c-2.536,6.5-11.849,17.756-20.894,27.761,11.869-29.885,23.766-55.2,30.406-68.817,1.885-3.858,3.694-7.751,5.482-11.65,6.819,4.8,15.076,5.626,23.3,4.441a44.783,44.783,0,0,0-1.316,20.641c.685.041,1.371.048,2.056.034.082.487.137.747.137.747a26.109,26.109,0,0,0,9.272-1.1c-3.659,7.415-7.326,15.076-10.923,22.841h0c-17.119-1.72-34.868-1.706-37.52,5.085ZM633.145,250.9c-.123-.274-.2-.418-.2-.418h0c-.137-.308-.24-.528-.295-.644q.541.48,1.076.918Zm-47.367-4.982c5.839-2,11.013-5.887,15.481-10.533A45.421,45.421,0,0,0,617.9,257.8a45.23,45.23,0,0,0-6.538,8.456c-.363.6-.685,1.206-1.062,1.816a46.087,46.087,0,0,0-17.406-21.71c-7.12,6.5-9.286,15.871-9.053,25.356,0,.644.048,1.288.082,1.939a45.551,45.551,0,0,0-12.972-7.4c5.051-7.182,10.06-14.007,14.823-20.333Z" transform="translate(-76.658 -50.347)"/><path class="h" d="M486.627,603.463s-34.059-34.059-39.219-47.47-69.146,0-69.146,0-31.989,9.286-46.442-1.035c0,0,22.7,17.543,24.766,31.989s82.564,51.6,82.564,51.6l47.477,44.407,16.515-9.286Z" transform="translate(-127.27 -199.102)"/><path class="f" d="M505.167,673.665l-16.516,9.293L475.4,670.575l-34.223-31.989s-80.48-37.177-82.536-51.609a24.415,24.415,0,0,0-2.995-8.223c-6.51-11.814-20.984-23.17-21.744-23.766C348.36,565.266,380.308,556,380.308,556s63.985-13.418,69.146,0,39.2,47.463,39.2,47.463Z" transform="translate(-127.925 -199.104)"/><path class="i" d="M491.477,683.754h-8.086l-34.223-31.989s-80.487-37.17-82.543-51.6a24.415,24.415,0,0,0-2.995-8.223,180.813,180.813,0,0,1,19.5.98c22.7,22.7,54.693,34.059,54.693,34.059C469.809,606.372,491.477,683.754,491.477,683.754Z" transform="translate(-137.281 -212.291)"/><path class="h" d="M438.264,688.285H399.045l-106.3-4.112s-16-9.34-29.707-19.49c-9.094-6.716-17.132-13.795-18.791-18.743-4.112-12.383-46.442-35.087-46.442-35.087s43.344,8.223,66.048-5.16,66.048-8.224,66.048-8.224c22.7,22.7,54.693,34.059,54.693,34.059,17.742-11.444,32.3,7.257,41.768,26.185a195.73,195.73,0,0,1,11.9,30.571Z" transform="translate(-85.096 -213.724)"/><path class="h" d="M593.815,603.463s34.059-34.059,39.219-47.47,69.146,0,69.146,0,31.989,9.286,46.442-1.035c0,0-22.7,17.543-24.766,31.989s-82.564,51.6-82.564,51.6l-47.477,44.407L577.3,673.67Z" transform="translate(-204.526 -199.102)"/><path class="f" d="M751.581,555c-.761.6-15.234,11.958-21.744,23.78A24.285,24.285,0,0,0,726.842,587c-2.056,14.446-82.564,51.6-82.564,51.6l-34.223,31.989-13.24,12.363L580.3,673.67l16.515-70.208s34.059-34.059,39.219-47.47,69.146,0,69.146,0S737.121,565.292,751.581,555Z" transform="translate(-205.47 -199.102)"/><path class="i" d="M550.653,704.549c-1.439,1.336-3.858,2.446-3.426,4.365a3.179,3.179,0,0,0,1.11,1.617c2.686,2.385,7.038,4.242,6.675,7.819-.206,2.056-2,3.516-2.878,5.366-1.83,3.865,1.055,8.792,5.119,10.122s8.614-.233,11.965-2.9a4.14,4.14,0,0,1,2.405-1.227,6.505,6.505,0,0,1,2.015.624c2.741.946,5.832-1.151,7-3.831s.959-5.736.72-8.648c1.556,1.323,4.112.6,5.434-.966s1.706-3.687,2.056-5.7l2.446-14.124c1.96-.569,2.741-3.214,1.843-5.044A6.126,6.126,0,0,0,588.125,689a21.618,21.618,0,0,0-6.058.651,76.747,76.747,0,0,1-15.892,1.371c-4.42-.089-10.094-5.544-12.534-.685C551.421,694.66,554.689,700.786,550.653,704.549Z" transform="translate(-195.045 -242.624)"/><path class="i" d="M736.316,592a24.285,24.285,0,0,0-2.995,8.223c-2.056,14.446-82.564,51.6-82.564,51.6l-34.223,31.989H607.42s21.641-77.424,53.665-56.8c0,0,31.989-11.355,54.693-34.059A183.944,183.944,0,0,1,736.316,592Z" transform="translate(-214.005 -212.306)"/><path class="h" d="M850.891,610.869s-42.31,22.7-46.442,35.087c-1.549,4.646-8.744,11.163-17.132,17.5a367.436,367.436,0,0,1-31.366,20.682l-106.3,4.112H610.43A197.363,197.363,0,0,1,620.709,661c9.368-19.956,24.595-41.631,43.372-29.515,0,0,31.989-11.355,54.693-34.059,0,0,43.344-5.16,66.048,8.224S850.891,610.869,850.891,610.869Z" transform="translate(-214.952 -213.711)"/><path class="j" d="M734.364,263.261S670.3,337.7,642.994,401.024c-2.81,6.517-5.708,13.02-8.779,19.387-16.378,34.086-65.657,142.54-63.937,210.384L551.7,634.749s47.49-193.985,67.083-223.911c0,0,86.689-148.612,115.588-163.058Z" transform="translate(-196.469 -103.98)"/><path class="j" d="M580.544,516.913c-1.117,18.75-2.488,36.594-3.707,50.855-.24,2.933-.487,5.708-.685,8.319-1.261,14.3-2.2,23.355-2.2,23.355v.055c-.24,4.468-1.631,11.259-3.879,19.709-.74,2.8-1.59,5.777-2.508,8.909-.178.569-.343,1.144-.514,1.72q-1.179,3.961-2.529,8.223c-.37,1.158-.74,2.33-1.124,3.522-2.056,6.428-4.358,13.281-6.853,20.422-2.227,6.449-4.591,13.13-7.038,19.935l-.4,1.1c-.062.164-.123.343-.185.514H536q.082-.267.144-.514c1.974-6.99,3.79-13.836,5.482-20.483s3.283-13.212,4.729-19.421q.884-3.79,1.7-7.408.267-1.172.514-2.323c.082-.343.158-.685.226-1.014.37-1.638.72-3.248,1.055-4.8.137-.576.26-1.158.384-1.72l.308-1.446c.774-3.612,1.487-7.038,2.138-10.238.535-2.625,1.021-5.085,1.473-7.4.637-3.289,1.206-6.257,1.679-8.826,1.371-7.326,2.056-11.547,2.056-11.547a2.387,2.387,0,0,0,.075-.288q1.254-4.564,2.323-9.361c4.187-18.558,6.634-39.4,7.97-59.867,3.522-53.727-.555-104.849-.555-104.849l9.135-12.5C584.573,414.64,583.408,468.778,580.544,516.913Z" transform="translate(-191.528 -151.744)"/><path class="j" d="M736.36,445.522s-18.873,30.468-37.574,69.365q-2.741,5.729-5.482,11.65a505.8,505.8,0,0,0-18.989,47.018c-.528,1.535-1.042,3.077-1.535,4.605-.932,2.858-1.816,5.708-2.645,8.525-.329,1.1-.651,2.207-.953,3.3q-.884,3.125-1.672,6.2c-.761,3-1.453,5.976-2.056,8.909,0,0-3.879,11.931-9.135,30.838-.329,1.22-.685,2.453-1.021,3.728-.24.877-.487,1.775-.733,2.686-1.878,6.99-3.9,14.734-5.941,23.053-.685,2.851-1.371,5.756-2.1,8.744-1.412,5.976-2.83,12.2-4.2,18.585a3.243,3.243,0,0,1-.1.514H629.27a4.031,4.031,0,0,1,.075-.514c.891-6.812,1.789-13.466,2.741-19.873.651-4.591,1.323-9.073,1.994-13.377,1.179-7.572,2.385-14.651,3.584-21.031q.247-1.254.473-2.467v-.1a199.573,199.573,0,0,1,5.2-21.621,49.343,49.343,0,0,1,1.857-4.934s1.747-4.482,4.8-12.02l1.549-3.872c2.056-5,4.468-11,7.244-17.708.384-.939.781-1.9,1.186-2.871,5.647-13.589,12.52-29.762,19.873-46.278,1.974-4.427,3.975-8.909,6-13.3,17.379-37.979,36.348-74.655,48.087-83.043Z" transform="translate(-220.881 -161.402)"/><path class="j" d="M325.81,201.508s64.5,83.078,94.947,146.542c0,0,71.208,139.662,69.146,221.019l18.578,3.954s-20.641-98.078-41.8-166.669c-10.862-35.224-31.791-68.851-51.2-100.182C387.527,261.087,344.532,195.388,325.81,186Z" transform="translate(-125.379 -84.537)"/><path class="j" d="M648.735,804.384a4.114,4.114,0,0,0-.617-.137,5.8,5.8,0,0,0-.589-.1c-.24,0-.473-.062-.685-.075s-.445,0-.685,0H402.82a5.121,5.121,0,0,0-.72.075c.329-.206.685-.411,1.014-.61,5.914-3.5,13.829-6.7,23.361-9.484,18.976-5.551,44.366-9.5,73-11,3.365-.185,6.777-.322,10.224-.432l4.694-.123c3.063-.062,6.168-.1,9.286-.1h1.569c12.219,0,24.054.445,35.306,1.268q7.4.541,14.425,1.3a308.769,308.769,0,0,1,41.611,7.1c12.877,3.221,23.4,7.113,30.783,11.485Q648.05,803.952,648.735,804.384Z" transform="translate(-149.388 -272.231)"/><path class="i" d="M468.221,707.37H429l-106.3-4.112s-16-9.34-29.707-19.49c21.724-19.229,57.3-18.845,65.829-14.1,9.286,5.188,26.829,3.132,26.829,3.132,12.89-29.166,48.059-11.527,70.66,4a195.729,195.729,0,0,1,11.9,30.571Z" transform="translate(-115.053 -232.809)"/><path class="h" d="M441.782,696.919s-71.208-63.985-90.821-19.613c0,0-17.543,2.056-26.829-3.1s-50.567-5.16-71.208,19.606-70.174,49.539-70.174,49.539,50.06,4.3,74.3,12.417c6.168,2.056,41.282-1.035,65.013-8.223s49.54,4.112,49.54,4.112l73.271-29.927Z" transform="translate(-80.356 -234.226)"/><path class="f" d="M449.87,719.689,376.6,749.616a90.11,90.11,0,0,0-23.375-5.983,64.419,64.419,0,0,0-26.164,1.857c-23.738,7.223-58.825,10.32-65.013,8.224-24.239-8.08-74.306-12.383-74.306-12.383s49.519-24.739,70.18-49.505,61.916-24.766,71.208-19.6,26.829,3.1,26.829,3.1c19.606-44.379,90.814,19.606,90.814,19.606l1.487,11.931Z" transform="translate(-81.927 -233.601)"/><path class="i" d="M787.3,682.543a367.47,367.47,0,0,1-31.366,20.682l-106.3,4.112H610.43a197.367,197.367,0,0,1,10.279-27.247c22.087-16.049,61.546-38.609,75.382-7.326,0,0,17.543,2.056,26.829-3.1C731.267,665.04,765.49,664.567,787.3,682.543Z" transform="translate(-214.952 -232.796)"/><path class="h" d="M601.478,696.92s71.208-63.985,90.814-19.606c0,0,17.543,2.056,26.829-3.1s50.567-5.16,71.208,19.606S860.5,743.362,860.5,743.362s-50.054,4.3-74.3,12.411c-6.168,2.056-41.282-1.035-65.013-8.223s-49.539,4.112-49.539,4.112L598.38,721.686Z" transform="translate(-211.16 -234.228)"/><path class="f" d="M859.51,743.355s-50.06,4.3-74.306,12.417c-6.168,2.056-41.282-1.035-65.013-8.224-11.828-3.6-24.156-2.59-33.579-.685a86.669,86.669,0,0,0-15.974,4.8L597.38,721.686l1.871-14.932,1.227-9.834s71.208-63.985,90.814-19.606c0,0,17.543,2.056,26.829-3.1s50.567-5.16,71.208,19.606S859.51,743.355,859.51,743.355Z" transform="translate(-210.845 -234.228)"/><path class="i" d="M687.632,767.367a86.661,86.661,0,0,0-15.974,4.8L598.38,742.231l1.871-14.932c22.827-2.878,66.247,11.835,66.247,11.835S695.246,755.183,687.632,767.367Z" transform="translate(-211.16 -254.773)"/><path class="i" d="M520.7,742.582l-73.271,29.927a90.1,90.1,0,0,0-23.375-5.983,8.462,8.462,0,0,1-.363-1.24c7.456-42.207,70.667-38.643,95.4-35.539Z" transform="translate(-156.183 -255.124)"/><path class="h" d="M631.75,768.845h0c-.9,2.405-3.056,4.694-6.921,6.729a40.223,40.223,0,0,1-6.716,2.741c-8.833,2.775-14.823,5.8-18.832,8.772-.24.178-.452.343-.685.514H464.965c-.1-.206-.206-.37-.281-.514-.2-.343-.322-.514-.322-.514-15.645-.487-24.574-4.687-29.632-8.97-5.633-4.749-6.49-9.594-6.49-9.594a2.537,2.537,0,0,1,.082-.445h0c6.449-34.491,50.485-38.027,79.493-36.492,2.878.158,5.606.349,8.134.576l1.569.144,3.228.343,1.371.158c1.61.185,3.077.384,4.386.569.733.1,1.371.2,2.056.281,2.309.349,3.9.63,4.585.754l.384.075a12.043,12.043,0,0,1,1.508-1.021,15.231,15.231,0,0,1,2.056-.994c.3-.123.61-.226.918-.329a32.282,32.282,0,0,1,8.5-1.494c.939-.062,1.9-.1,2.892-.1,1.227,0,2.494,0,3.8.055s2.467.123,3.735.226a2.922,2.922,0,0,1,.685.055,159.51,159.51,0,0,1,16.783,2.467c5.941,1.165,11.753,2.556,16.892,3.913,10.766,2.837,18.6,5.482,18.6,5.482S636.232,756.893,631.75,768.845Z" transform="translate(-157.615 -255.75)"/><ellipse class="c" cx="28.871" cy="18.578" rx="28.871" ry="18.578" transform="translate(343.755 209.523) rotate(-14.25)"/><path class="k" d="M613.838,335.877s41.364-23.567,61.381-4.66c0,0-18.071,34.867-62.67,17.064Z" transform="translate(-215.619 -127.927)"/><path class="f" d="M604.92,325.651S629.714,285,656.378,291.88c0,0,1.049,39.253-46.6,45.229Z" transform="translate(-213.218 -117.612)"/><path class="k" d="M602.56,324.471s24.794-40.651,51.458-33.771c0,0,1.049,39.253-46.6,45.229Z" transform="translate(-212.475 -117.241)"/><path class="f" d="M607.436,334.778l-.685-1.617-4.18-9.861s10.841-17.77,25.883-27.816c7.716-5.16,16.536-8.292,25.568-5.955C654.028,289.522,655.077,328.782,607.436,334.778Z" transform="translate(-212.478 -116.871)"/><path class="f" d="M628.45,298.57c-.589,11.136-5.66,24.636-21.635,37.732l-.075-.048-4.18-9.861S613.408,308.623,628.45,298.57Z" transform="translate(-212.475 -119.964)"/><path class="k" d="M601.711,324.648l-2.3-1.61-7.929-5.517s-.281-20.559,6.983-37.06c3.783-8.587,9.594-16.056,18.6-18.921C617.061,261.54,638.853,294.208,601.711,324.648Z" transform="translate(-208.988 -108.311)"/><path class="f" d="M599.716,331.757h-.308l-7.929-5.517s-.281-20.559,6.983-37.06C603.568,298.884,606.1,312.754,599.716,331.757Z" transform="translate(-208.988 -117.009)"/><path class="c" d="M576.427,322.421s-25.849-39.987-8.073-60.991c0,0,35.82,16.1,20.559,61.621Z" transform="translate(-199.746 -108.276)"/><path class="f" d="M560.984,328.066S524.067,297.989,534.5,272.51c0,0,39.061,4.276,38.52,52.294Z" transform="translate(-190.471 -111.763)"/><path class="k" d="M558.594,328.066s-36.917-30.077-26.452-55.556c0,0,39.061,4.276,38.52,52.294Z" transform="translate(-189.726 -111.763)"/><path class="f" d="M543.61,342.464s-46.243-11.362-47.73-38.856c0,0,37.108-12.856,57.208,30.756Z" transform="translate(-178.902 -120.993)"/><path class="c" d="M542.43,344.824s-46.243-11.362-47.73-38.856c0,0,37.108-12.856,57.208,30.756Z" transform="translate(-178.531 -121.736)"/><path class="f" d="M533.445,362.916s-46.716,9.217-59.675-15.076c0,0,28.213-27.316,64.842,3.728Z" transform="translate(-171.944 -131.974)"/><path class="k" d="M532.265,365.276s-46.716,9.217-59.675-15.076c0,0,28.213-27.316,64.842,3.728Z" transform="translate(-171.572 -132.717)"/><path class="f" d="M544.085,366.692s-34.045,33.291-58.195,20.052c0,0,8.655-38.308,56.3-32.38Z" transform="translate(-175.758 -137.327)"/><path class="c" d="M546.445,369.052S512.4,402.343,488.25,389.1c0,0,8.655-38.308,56.3-32.38Z" transform="translate(-176.501 -138.07)"/><path class="f" d="M555.884,364.484s5.619,47.285-19.6,58.345c0,0-25.082-30.221,8.683-64.369Z" transform="translate(-188.798 -138.812)"/><path class="k" d="M559.454,365.664s5.619,47.285-19.6,58.345c0,0-25.082-30.221,8.683-64.369Z" transform="translate(-189.921 -139.184)"/><path class="f" d="M582.434,369.234s5.619,47.285-19.6,58.345c0,0-25.082-30.221,8.683-64.369Z" transform="translate(-197.154 -140.307)"/><path class="k" d="M584.794,369.234s5.619,47.285-19.6,58.345c0,0-25.082-30.221,8.683-64.369Z" transform="translate(-197.896 -140.307)"/><path class="f" d="M583.815,373.42s39.288,26.9,31.009,53.165c0,0-39.26-1.021-42.735-48.916Z" transform="translate(-202.886 -143.52)"/><path class="k" d="M586.175,373.42s39.288,26.9,31.009,53.165c0,0-39.26-1.021-42.735-48.916Z" transform="translate(-203.629 -143.52)"/><path class="f" d="M600.963,364.3s48.553,11.718,53.987,43.653c0,0-35.827,16.139-62.45-33.915Z" transform="translate(-209.309 -140.65)"/><path class="k" d="M603.323,363.12s48.553,11.718,53.987,43.639c0,0-35.827,16.139-62.45-33.915Z" transform="translate(-210.052 -140.279)"/><path class="k" d="M576.427,322.421s-25.849-39.987-8.073-60.991c0,0,35.82,16.1,20.559,61.621Z" transform="translate(-199.746 -108.276)"/><path class="f" d="M576.427,322.421s-25.849-39.987-8.073-60.991c0,0,35.82,16.1,20.559,61.621Z" transform="translate(-199.746 -108.276)"/><path class="k" d="M542.43,344.824s-46.243-11.362-47.73-38.856c0,0,37.108-12.856,57.208,30.756Z" transform="translate(-178.531 -121.736)"/><path class="f" d="M542.43,344.824s-46.243-11.362-47.73-38.856c0,0,37.108-12.856,57.208,30.756Z" transform="translate(-178.531 -121.736)"/><path class="k" d="M546.445,369.052S512.4,402.343,488.25,389.1c0,0,8.655-38.308,56.3-32.38Z" transform="translate(-176.501 -138.07)"/><path class="f" d="M546.445,369.052S512.4,402.343,488.25,389.1c0,0,8.655-38.308,56.3-32.38Z" transform="translate(-176.501 -138.07)"/><path class="k" d="M584.794,369.234s5.619,47.285-19.6,58.345c0,0-25.082-30.221,8.683-64.369Z" transform="translate(-197.896 -140.307)"/><path class="f" d="M584.794,369.234s5.619,47.285-19.6,58.345c0,0-25.082-30.221,8.683-64.369Z" transform="translate(-197.896 -140.307)"/><path class="k" d="M603.323,363.12s48.553,11.718,53.987,43.639c0,0-35.827,16.139-62.45-33.915Z" transform="translate(-210.052 -140.279)"/><path class="f" d="M603.323,363.12s48.553,11.718,53.987,43.639c0,0-35.827,16.139-62.45-33.915Z" transform="translate(-210.052 -140.279)"/><path class="f" d="M611.083,353.1s49.91,1.823,61.594,32.024c0,0-31.893,22.95-67.946-20.805Z" transform="translate(-213.158 -137.125)"/><path class="f" d="M612.263,347.21s49.91,1.823,61.594,32.024c0,0-31.893,22.95-67.946-20.805Z" transform="translate(-213.53 -135.272)"/><path class="k" d="M612.263,350.74s49.91,1.823,61.594,32.024c0,0-31.893,22.95-67.946-20.805Z" transform="translate(-213.53 -136.383)"/><path class="l" d="M606.627,352.8a29.378,29.378,0,1,1-21.4-35.635A29.378,29.378,0,0,1,606.627,352.8Z" transform="translate(-195.538 -125.541)"/><ellipse class="c" cx="28.871" cy="18.578" rx="28.871" ry="18.578" transform="translate(167.636 90.753) rotate(-14.25)"/><path class="m" d="M356.825,162.564s41.364-23.581,61.374-4.66c0,0-18.071,34.867-62.67,17.064Z" transform="translate(-134.732 -73.382)"/><path class="f" d="M347.91,152.341S372.7,111.69,399.368,118.57c0,0,1.049,39.253-46.6,45.229Z" transform="translate(-132.334 -63.069)"/><path class="n" d="M345.55,151.131s24.794-40.651,51.458-33.771c0,0,1.048,39.253-46.6,45.229Z" transform="translate(-131.591 -62.689)"/><path class="f" d="M350.416,161.468l-.685-1.617-4.18-9.861s10.841-17.77,25.883-27.816c7.716-5.16,16.536-8.292,25.568-5.955C397.008,116.219,398.064,155.472,350.416,161.468Z" transform="translate(-131.591 -62.329)"/><path class="f" d="M371.44,125.27c-.589,11.136-5.66,24.636-21.635,37.732l-.075-.048-4.18-9.861S356.4,135.316,371.44,125.27Z" transform="translate(-131.591 -65.425)"/><path class="m" d="M344.688,151.348l-2.33-1.59-7.929-5.517s-.281-20.559,6.983-37.06c3.783-8.587,9.594-16.056,18.6-18.921C360.039,88.246,381.831,120.907,344.688,151.348Z" transform="translate(-128.091 -53.777)"/><path class="f" d="M342.706,158.447H342.4l-7.929-5.517s-.281-20.559,6.983-37.06C346.558,125.553,349.087,139.444,342.706,158.447Z" transform="translate(-128.104 -62.466)"/><path class="n" d="M319.427,149.111s-25.849-39.987-8.073-60.991c0,0,35.82,16.1,20.559,61.621Z" transform="translate(-118.865 -53.733)"/><path class="f" d="M303.934,154.756s-36.917-30.07-26.486-55.556c0,0,39.061,4.276,38.52,52.294Z" transform="translate(-109.574 -57.22)"/><path class="m" d="M301.574,154.756S264.657,124.679,275.087,99.2c0,0,39.061,4.276,38.52,52.294Z" transform="translate(-108.832 -57.22)"/><path class="f" d="M286.6,169.164s-46.243-11.362-47.73-38.856c0,0,37.108-12.856,57.208,30.756Z" transform="translate(-98.018 -66.454)"/><path class="n" d="M285.42,171.524s-46.243-11.362-47.73-38.856c0,0,37.108-12.856,57.208,30.756Z" transform="translate(-97.647 -67.196)"/><path class="f" d="M276.435,189.606s-46.716,9.217-59.675-15.076c0,0,28.213-27.316,64.842,3.728Z" transform="translate(-91.06 -77.432)"/><path class="m" d="M275.255,191.976s-46.716,9.217-59.675-15.076c0,0,28.213-27.316,64.842,3.728Z" transform="translate(-90.688 -78.178)"/><path class="f" d="M287.075,193.392s-34.045,33.291-58.195,20.052c0,0,8.655-38.308,56.3-32.38Z" transform="translate(-94.874 -82.788)"/><path class="n" d="M289.435,195.765s-34.045,33.291-58.195,20.079c0,0,8.655-38.308,56.3-32.38Z" transform="translate(-95.617 -83.543)"/><path class="f" d="M298.884,191.184s5.619,47.285-19.6,58.345c0,0-25.082-30.221,8.683-64.369Z" transform="translate(-107.917 -84.273)"/><path class="m" d="M302.434,192.364s5.619,47.285-19.6,58.345c0,0-25.082-30.221,8.683-64.369Z" transform="translate(-109.034 -84.644)"/><path class="f" d="M325.424,195.964s5.619,47.285-19.6,58.345c0,0-25.082-30.221,8.683-64.369Z" transform="translate(-116.27 -85.777)"/><path class="n" d="M327.784,195.964s5.619,47.285-19.6,58.345c0,0-25.082-30.221,8.683-64.369Z" transform="translate(-117.012 -85.777)"/><path class="f" d="M326.805,200.12s39.288,26.9,31.009,53.165c0,0-39.26-1.021-42.735-48.916Z" transform="translate(-122.002 -88.981)"/><path class="m" d="M329.155,200.12s39.288,26.9,31.009,53.165c0,0-39.26-1.021-42.735-48.916Z" transform="translate(-122.742 -88.981)"/><path class="f" d="M343.953,191s48.553,11.718,53.987,43.639c0,0-35.827,16.139-62.45-33.915Z" transform="translate(-128.425 -86.111)"/><path class="n" d="M346.32,189.82s48.518,11.718,54,43.639c0,0-35.827,16.139-62.45-33.915Z" transform="translate(-128.174 -90.739)"/><path class="n" d="M319.427,149.111s-25.849-39.987-8.073-60.991c0,0,35.82,16.1,20.559,61.621Z" transform="translate(-118.865 -53.733)"/><path class="f" d="M319.427,149.111s-25.849-39.987-8.073-60.991c0,0,35.82,16.1,20.559,61.621Z" transform="translate(-118.865 -52.733)"/><path class="n" d="M285.42,171.524s-46.243-11.362-47.73-38.856c0,0,37.108-12.856,57.208,30.756Z" transform="translate(-97.647 -67.196)"/><path class="f" d="M285.42,171.524s-46.243-11.362-47.73-38.856c0,0,37.108-12.856,57.208,30.756Z" transform="translate(-97.647 -67.196)"/><path class="n" d="M289.435,195.765s-34.045,33.291-58.195,20.079c0,0,8.655-38.308,56.3-32.38Z" transform="translate(-95.617 -83.543)"/><path class="f" d="M289.435,195.765s-34.045,33.291-58.195,20.079c0,0,8.655-38.308,56.3-32.38Z" transform="translate(-95.617 -83.543)"/><path class="n" d="M327.784,195.964s5.619,47.285-19.6,58.345c0,0-25.082-30.221,8.683-64.369Z" transform="translate(-117.012 -85.777)"/><path class="f" d="M327.784,195.964s5.619,47.285-19.6,58.345c0,0-25.082-30.221,8.683-64.369Z" transform="translate(-117.012 -85.777)"/><path class="n" d="M346.32,189.82s48.518,11.718,54,43.639c0,0-35.827,16.139-62.45-33.915Z" transform="translate(-129.174 -85.739)"/><path class="f" d="M346.32,189.82s48.518,11.718,54,43.639c0,0-35.827,16.139-62.45-33.915Z" transform="translate(-129.174 -85.739)"/><path class="f" d="M354.083,179.79s49.91,1.823,61.594,32.024c0,0-31.893,22.95-67.946-20.805Z" transform="translate(-132.277 -82.583)"/><path class="f" d="M355.237,173.9s49.91,1.823,61.559,32.024c0,0-31.893,22.95-67.946-20.805Z" transform="translate(-132.63 -80.729)"/><path class="m" d="M355.237,177.44s49.91,1.823,61.559,32.024c0,0-31.893,22.95-67.946-20.805Z" transform="translate(-132.63 -81.843)"/><path class="l" d="M349.617,179.492a29.378,29.378,0,1,1-21.4-35.635A29.378,29.378,0,0,1,349.617,179.492Z" transform="translate(-114.654 -70.998)"/><ellipse class="c" cx="28.871" cy="18.578" rx="28.871" ry="18.578" transform="matrix(0.763, -0.647, 0.647, 0.763, 506.296, 150.561)"/><path class="n" d="M842.55,205.941s26.809-39.356,53.089-31.14c0,0-.925,39.26-48.806,42.851Z" transform="translate(-288.003 -80.658)"/><path class="f" d="M834.07,200.689s4.42-47.415,31.4-52.939c0,0,18.181,34.806-21.984,61.114Z" transform="translate(-285.334 -72.499)"/><path class="n" d="M831.43,200.689s4.42-47.415,31.4-52.939c0,0,18.181,34.806-21.984,61.114Z" transform="translate(-284.503 -72.499)"/><path class="f" d="M840.336,207.843l-1.329-1.151-8.086-7s1.939-20.723,11.04-36.361c4.667-8.025,11.218-14.713,20.36-16.577C862.32,146.729,880.5,181.535,840.336,207.843Z" transform="translate(-284.343 -72.185)"/><path class="f" d="M841.939,170.91c4.358,10.279,5.729,24.616-2.865,43.4h-.089l-8.066-7.017S832.859,186.548,841.939,170.91Z" transform="translate(-284.343 -79.788)"/><path class="n" d="M830.472,206.15l-2.741-.432-9.546-1.473s-9.292-18.373-10.005-36.361c-.377-9.375,1.59-18.647,8.4-25.164C816.547,142.713,850.469,162.491,830.472,206.15Z" transform="translate(-277.172 -70.916)"/><path class="f" d="M827.982,217.151l-.281.123-9.546-1.473s-9.292-18.373-10.005-36.361C817.011,185.923,825.371,197.278,827.982,217.151Z" transform="translate(-277.177 -82.473)"/><path class="c" d="M802.277,219.152s-40.788-24.574-34.052-51.273c0,0,39.253-1.268,45.5,46.346Z" transform="translate(-264.376 -78.833)"/><path class="f" d="M789.416,231.027s-46.373-10.8-48.2-38.28c0,0,36.951-13.3,57.564,30.064Z" transform="translate(-256.113 -86.055)"/><path class="n" d="M787.3,232.057s-46.373-10.8-48.2-38.28c0,0,36.951-13.3,57.564,30.064Z" transform="translate(-255.446 -86.38)"/><path class="f" d="M779.759,248.238s-46.531,10.1-59.949-13.946c0,0,27.692-27.843,64.9,2.5Z" transform="translate(-249.375 -96.064)"/><path class="c" d="M779.739,250.838s-46.531,10.1-59.949-13.946c0,0,27.693-27.843,64.9,2.5Z" transform="translate(-249.369 -96.882)"/><path class="f" d="M781.5,267.637s-37.917,28.782-60.23,12.664c0,0,13.349-36.93,59.894-25.13Z" transform="translate(-249.835 -105.574)"/><path class="n" d="M781.47,270.277s-37.917,28.782-60.23,12.664c0,0,13.349-36.93,59.894-25.13Z" transform="translate(-249.825 -106.405)"/><path class="f" d="M796.8,263.3s-15.967,44.859-43.475,43.571c0,0-9.046-38.212,36.368-53.816Z" transform="translate(-259.691 -105.639)"/><path class="c" d="M799.948,264.375s-15.967,44.859-43.475,43.571c0,0-9.046-38.212,36.368-53.816Z" transform="translate(-260.682 -105.978)"/><path class="f" d="M805.658,263.641s25.815,40.014,8.018,60.991c0,0-35.806-16.132-20.47-61.642Z" transform="translate(-271.272 -108.767)"/><path class="n" d="M809.348,263.141s25.815,40.014,8.018,60.991c0,0-35.806-16.132-20.47-61.642Z" transform="translate(-272.433 -108.609)"/><path class="f" d="M831.588,256.281s25.815,40.014,8.018,60.991c0,0-35.806-16.132-20.47-61.642Z" transform="translate(-279.432 -106.451)"/><path class="c" d="M833.708,255.251s25.815,40.014,8.018,60.991c0,0-35.806-16.132-20.47-61.642Z" transform="translate(-280.1 -106.126)"/><path class="o" d="M830.022,260.62s47.114,6.915,51.212,34.141c0,0-35.717,16.324-59.874-25.178Z" transform="translate(-281.334 -108.021)"/><path class="n" d="M832.1,259.59s47.114,6.915,51.212,34.141c0,0-35.717,16.324-59.874-25.177Z" transform="translate(-281.989 -107.697)"/><path class="o" d="M842.47,244.542s48.765-10.793,67.665,15.494c0,0-25.1,30.235-71-3.043Z" transform="translate(-286.93 -102.27)"/><path class="c" d="M844.08,242.452s48.765-10.793,67.665,15.494c0,0-25.1,30.235-71-3.043Z" transform="translate(-287.436 -101.613)"/><path class="n" d="M802.277,219.152s-40.788-24.574-34.052-51.273c0,0,39.253-1.268,45.5,46.346Z" transform="translate(-264.376 -78.833)"/><path class="f" d="M802.277,219.152s-40.788-24.574-34.052-51.273c0,0,39.253-1.268,45.5,46.346Z" transform="translate(-264.376 -78.833)"/><path class="n" d="M779.739,250.838s-46.531,10.1-59.949-13.946c0,0,27.693-27.843,64.9,2.5Z" transform="translate(-249.369 -96.882)"/><path class="f" d="M779.739,250.838s-46.531,10.1-59.949-13.946c0,0,27.693-27.843,64.9,2.5Z" transform="translate(-249.369 -96.882)"/><path class="n" d="M799.948,264.375s-15.967,44.859-43.475,43.571c0,0-9.046-38.212,36.368-53.816Z" transform="translate(-260.682 -105.978)"/><path class="f" d="M799.948,264.375s-15.967,44.859-43.475,43.571c0,0-9.046-38.212,36.368-53.816Z" transform="translate(-260.682 -105.978)"/><path class="n" d="M833.708,255.251s25.815,40.014,8.018,60.991c0,0-35.806-16.132-20.47-61.642Z" transform="translate(-280.1 -106.126)"/><path class="f" d="M833.708,255.251s25.815,40.014,8.018,60.991c0,0-35.806-16.132-20.47-61.642Z" transform="translate(-280.1 -106.126)"/><path class="n" d="M844.08,242.452s48.765-10.793,67.665,15.494c0,0-25.1,30.235-71-3.043Z" transform="translate(-287.436 -101.613)"/><path class="f" d="M844.08,242.452s48.765-10.793,67.665,15.494c0,0-25.1,30.235-71-3.043Z" transform="translate(-287.436 -101.613)"/><path class="f" d="M846.951,227.554s45.64-20.285,69.4,1.72c0,0-18.578,34.621-70.18,11.15Z" transform="translate(-289.142 -94.931)"/><path class="f" d="M845.421,221.744s45.64-20.285,69.4,1.72c0,0-18.578,34.621-70.18,11.15Z" transform="translate(-288.661 -93.103)"/><path class="n" d="M846.981,224.914s45.64-20.285,69.4,1.72c0,0-18.578,34.621-70.18,11.15Z" transform="translate(-289.152 -94.101)"/><path class="l" d="M845.109,227.144a29.378,29.378,0,1,1-34.874-22.615,29.378,29.378,0,0,1,34.874,22.615Z" transform="translate(-270.518 -90.163)"/><ellipse class="c" cx="28.871" cy="18.578" rx="28.871" ry="18.578" transform="translate(477.919 279.273) rotate(-39.4)"/><path class="k" d="M801.69,395.1s27.412-38.931,53.576-30.3c0,0-1.542,39.24-49.478,42.077Z" transform="translate(-275.144 -140.414)"/><path class="f" d="M793.14,389.668s5.167-47.34,32.209-52.438c0,0,17.632,35.087-22.943,60.765Z" transform="translate(-272.453 -132.131)"/><path class="k" d="M790.5,389.6s5.167-47.34,32.208-52.438c0,0,17.633,35.087-22.943,60.765Z" transform="translate(-271.622 -132.109)"/><path class="f" d="M799.286,396.858l-1.309-1.172L790,388.538s2.261-20.689,11.609-36.183c4.8-7.949,11.444-14.535,20.613-16.255C822.208,336.1,839.868,371.187,799.286,396.858Z" transform="translate(-271.465 -131.775)"/><path class="f" d="M801.616,359.82c4.2,10.327,5.345,24.7-3.55,43.351h-.089L790,396S792.268,375.314,801.616,359.82Z" transform="translate(-271.465 -139.24)"/><path class="k" d="M789.649,394.846l-2.741-.48-9.546-1.631s-9-18.5-9.43-36.512c-.226-9.382,1.878-18.619,8.792-25.034C776.725,331.2,810.331,351.5,789.649,394.846Z" transform="translate(-264.515 -130.23)"/><path class="f" d="M787.169,405.747l-.288.117-9.512-1.631s-9-18.5-9.43-36.512C776.691,374.354,784.88,385.832,787.169,405.747Z" transform="translate(-264.522 -141.727)"/><path class="c" d="M761.343,407.351s-40.4-25.212-33.243-51.8c0,0,39.267-.644,44.77,47.052Z" transform="translate(-251.717 -137.896)"/><path class="f" d="M748.386,419.09s-46.2-11.533-47.586-39.061c0,0,37.156-12.719,57.091,30.968Z" transform="translate(-243.393 -145.058)"/><path class="k" d="M746.246,420.1a110.791,110.791,0,0,1-14.019-4.818c-13.5-5.594-32.683-16.653-33.568-34.244,0,0,37.156-12.719,57.091,30.968Z" transform="translate(-242.719 -145.376)"/><path class="f" d="M738.383,436.257s-46.689,9.368-59.723-14.891c0,0,28.1-27.412,64.856,3.529Z" transform="translate(-236.425 -155.085)"/><path class="c" d="M738.323,438.887S691.634,448.255,678.6,424c0,0,28.1-27.412,64.856,3.529Z" transform="translate(-236.406 -155.912)"/><path class="f" d="M739.7,455.8S701.326,484,679.28,467.516c0,0,13.925-36.718,60.305-24.184Z" transform="translate(-236.62 -164.702)"/><path class="k" d="M739.632,458.435s-38.376,28.2-60.422,11.712c0,0,13.925-36.718,60.305-24.184Z" transform="translate(-236.598 -165.53)"/><path class="f" d="M754.93,451.665s-16.673,44.605-44.153,42.885c0,0-8.443-38.376,37.211-53.24Z" transform="translate(-246.339 -164.886)"/><path class="c" d="M758.07,452.792S741.4,497.4,713.917,495.67c0,0-8.443-38.376,37.211-53.24Z" transform="translate(-247.327 -165.239)"/><path class="f" d="M763.957,451.925s25.184,40.432,7.058,61.141c0,0-35.546-16.694-19.5-61.957Z" transform="translate(-258.045 -167.97)"/><path class="k" d="M767.667,451.485s25.184,40.432,7.058,61.141c0,0-35.546-16.694-19.5-61.957Z" transform="translate(-259.212 -167.832)"/><path class="f" d="M790.007,444.975s25.184,40.432,7.058,61.141c0,0-35.546-16.694-19.5-61.957Z" transform="translate(-266.243 -165.783)"/><path class="c" d="M792.137,443.975s25.184,40.432,7.058,61.141c0,0-35.546-16.694-19.5-61.957Z" transform="translate(-266.913 -165.468)"/><path class="f" d="M788.416,449.31s47,7.655,50.663,34.95c0,0-35.971,15.762-59.469-26.116Z" transform="translate(-268.195 -167.404)"/><path class="k" d="M790.556,448.31s47,7.655,50.663,34.95c0,0-35.971,15.762-59.469-26.116Z" transform="translate(-268.868 -167.089)"/><path class="f" d="M801.132,433.549s48.93-10.026,67.419,16.557c0,0-25.568,29.837-70.941-4.16Z" transform="translate(-273.86 -161.86)"/><path class="c" d="M802.772,431.479s48.93-10.026,67.419,16.557c0,0-25.568,29.837-70.941-4.16Z" transform="translate(-274.376 -161.209)"/><path class="k" d="M761.343,407.351s-40.4-25.212-33.243-51.8c0,0,39.267-.644,44.77,47.052Z" transform="translate(-251.717 -137.896)"/><path class="f" d="M761.343,407.351s-40.4-25.212-33.243-51.8c0,0,39.267-.644,44.77,47.052Z" transform="translate(-251.717 -137.896)"/><path class="k" d="M738.323,438.887S691.634,448.255,678.6,424c0,0,28.1-27.412,64.856,3.529Z" transform="translate(-236.406 -155.912)"/><path class="f" d="M738.323,438.887S691.634,448.255,678.6,424c0,0,28.1-27.412,64.856,3.529Z" transform="translate(-236.406 -155.912)"/><path class="k" d="M758.07,452.792S741.4,497.4,713.917,495.67c0,0-8.443-38.376,37.211-53.24Z" transform="translate(-247.327 -165.239)"/><path class="f" d="M758.07,452.792S741.4,497.4,713.917,495.67c0,0-8.443-38.376,37.211-53.24Z" transform="translate(-247.327 -165.239)"/><path class="k" d="M792.137,443.975s25.184,40.432,7.058,61.141c0,0-35.546-16.694-19.5-61.957Z" transform="translate(-266.913 -165.468)"/><path class="f" d="M792.137,443.975s25.184,40.432,7.058,61.141c0,0-35.546-16.694-19.5-61.957Z" transform="translate(-266.913 -165.468)"/><path class="k" d="M802.772,431.479s48.93-10.026,67.419,16.557c0,0-25.568,29.837-70.941-4.16Z" transform="translate(-274.376 -161.209)"/><path class="f" d="M802.772,431.479s48.93-10.026,67.419,16.557c0,0-25.568,29.837-70.941-4.16Z" transform="translate(-274.376 -161.209)"/><path class="f" d="M805.83,416.735s45.955-19.558,69.365,2.817c0,0-19.12,34.326-70.345,10.039Z" transform="translate(-276.138 -154.661)"/><path class="f" d="M804.39,410.9s45.955-19.558,69.365,2.81c0,0-19.12,34.326-70.345,10.039Z" transform="translate(-275.685 -152.826)"/><path class="k" d="M805.89,414.105s45.955-19.558,69.365,2.817c0,0-19.12,34.326-70.345,10.039Z" transform="translate(-276.157 -153.834)"/><path class="l" d="M803.928,416.232a29.378,29.378,0,1,1-34.511-23.149A29.378,29.378,0,0,1,803.928,416.232Z" transform="translate(-257.529 -149.532)"/><path class="n" d="M333.47,397.1c2.357,8.546,10.533,13.74,10.533,13.74s4.365-8.655,2.008-17.2-10.533-13.74-10.533-13.74S331.12,388.569,333.47,397.1Z" transform="translate(-127.571 -145.56)"/><path class="k" d="M397.725,468.244c-2.536,8.491,1.645,17.235,1.645,17.235s8.285-5.023,10.821-13.514-1.645-17.235-1.645-17.235S400.261,459.746,397.725,468.244Z" transform="translate(-147.755 -169.11)"/><path class="n" d="M858.957,551.013c-6.223,6.312-6.627,15.995-6.627,15.995s9.676-.548,15.9-6.853,6.627-15.995,6.627-15.995S865.124,544.736,858.957,551.013Z" transform="translate(-291.081 -197.254)"/><path class="p" d="M1009.571,755.691s1.227,17.968,3.269,20.01-18.38,3.269-18.38,3.269l2.858-23.3Z" transform="translate(-335.811 -263.819)"/><path class="f" d="M1009.571,755.691s1.227,17.968,3.269,20.01-18.38,3.269-18.38,3.269l2.858-23.3Z" transform="translate(-335.811 -263.819)"/><path class="e" d="M1000.558,773.375s-2.858,0-13.068,5.311c0,0-6.942-1.227-9.8-11.026,0,0-8.573,14.7-14.3,15.515s-16.742,1.61-9.388,11.444,50.622,5.277,50.622,5.277S1005.869,776.212,1000.558,773.375Z" transform="translate(-322.309 -267.592)"/><path class="f" d="M1000.558,773.375s-2.858,0-13.068,5.311c0,0-6.942-1.227-9.8-11.026,0,0-8.573,14.7-14.3,15.515s-16.742,1.61-9.388,11.444,50.622,5.277,50.622,5.277S1005.869,776.212,1000.558,773.375Z" transform="translate(-322.309 -267.592)"/><path class="p" d="M1004.2,789.388l-2.823,7.764-18.784-5.311,1.069-7.7.26-1.857.685-5.14s15.926-4.112,15.926-2.056a31.678,31.678,0,0,0,1.049,4.975c.685,2.508,1.473,5.373,2.056,7.257C1003.957,788.552,1004.2,789.388,1004.2,789.388Z" transform="translate(-332.075 -269.748)"/><path class="q" d="M989.121,596.524a11.156,11.156,0,0,0-.034,11.362,19.789,19.789,0,0,0,2.933,4.071c8.984,9.8,11.438,31.852,11.438,31.852v35.525l-6.127.473-9.8.754-14.7-60.436s-8.573-44.105-4.489-51.863,7.757-56.351,7.757-56.351l3.392-3.509,8.045-8.333h23.3a15.652,15.652,0,0,1,4.53,5.064c3.906,6.469,7.415,19.921-3.3,44.756-16.742,38.794-21.641,44.921-21.641,44.921a9.412,9.412,0,0,0-1.3,1.713Z" transform="translate(-327.244 -183.379)"/><path class="f" d="M989.121,596.524a11.156,11.156,0,0,0-.034,11.362,19.789,19.789,0,0,0,2.933,4.071c8.984,9.8,11.438,31.852,11.438,31.852v35.525l-6.127.473-9.8.754-14.7-60.436s-8.573-44.105-4.489-51.863,7.757-56.351,7.757-56.351l3.392-3.509,8.045-8.333h23.3a15.652,15.652,0,0,1,4.53,5.064c3.906,6.469,7.415,19.921-3.3,44.756-16.742,38.794-21.641,44.921-21.641,44.921a9.412,9.412,0,0,0-1.3,1.713Z" transform="translate(-327.244 -183.379)"/><path class="i" d="M1002.167,780.075l-17.687,2.207.685-5.14s15.926-4.112,15.926-2.056A31.682,31.682,0,0,0,1002.167,780.075Z" transform="translate(-332.67 -269.748)"/><path class="q" d="M977.421,541.353s1.014,32.147,1.185,52.349c.034,4.571,0,8.532-.034,11.362a25.174,25.174,0,0,1-.329,4.482c-1.227,3.673,1.227,11.842,1.227,11.842,10.211,26.952,7.353,50.636,7.353,50.636v17.968l-19.6,2.453s3.269-2.453-5.715-26.137a103.376,103.376,0,0,1-6.3-35.827,38.334,38.334,0,0,0-2.865-14.172,17.49,17.49,0,0,1-1.048-4.722c-.816-8.169-4.489-18.379-4.489-18.379s-9.8-28.995-12.253-50.232a116.958,116.958,0,0,1,.569-30.379A75.81,75.81,0,0,1,936.6,505s39.918-25.123,54.995-7.757a19.66,19.66,0,0,1,3.426,5.715,37.73,37.73,0,0,1,1.926,6.359C1001.6,532.375,977.421,541.353,977.421,541.353Z" transform="translate(-316.73 -180.563)"/><circle class="p" cx="20.826" cy="20.826" r="20.826" transform="translate(638.646 140.278)"/><path class="p" d="M978.393,286.266s8.573,24.095,0,36.752,27.357,8.573,27.357,8.573l13.884-16.742s-16.337,0-17.132-28.583S978.393,286.266,978.393,286.266Z" transform="translate(-330.338 -112.094)"/><path class="i" d="M1006.587,507.06a53.592,53.592,0,0,1-9.1,2.282c-5.085.781-11.081.815-14.59-2.282-2.056-1.837-7.2-2.056-13.356-1.473-12.959,1.24-30.5,6.078-33.86,7.031a75.792,75.792,0,0,1,1.473-7.6s39.918-25.123,54.995-7.757h8.71a15.654,15.654,0,0,1,4.53,5.064C1006.148,505.573,1006.587,507.06,1006.587,507.06Z" transform="translate(-317.312 -180.569)"/><path class="i" d="M1004.2,793.809l-2.823,7.764-18.784-5.311,1.069-7.7c3.228,7.141,8.731,8.107,8.731,8.107a66.61,66.61,0,0,1,11.239-4.92C1003.957,792.973,1004.2,793.809,1004.2,793.809Z" transform="translate(-332.075 -274.17)"/><path class="e" d="M993.406,790.625s-2.858,0-13.068,5.311c0,0-6.942-1.227-9.8-11.026,0,0-8.573,14.7-14.3,15.515s-16.742,1.631-9.4,11.437,50.636,5.311,50.636,5.311S998.717,793.483,993.406,790.625Z" transform="translate(-320.058 -273.021)"/><path class="p" d="M874.54,272.211s.795-15.906,17.509-14.35a2.858,2.858,0,0,1,2.255,4.18l-3.426,6.449Z" transform="translate(-298.071 -107.119)"/><path class="e" d="M971.062,317.984s-20.01-3.269-25.321-7.353c0,0-4.112,7.757-11.437,3.673s-24.5-3.673-24.5-3.673a36.969,36.969,0,0,1-17.132-25.321s-2.858-10.615-2.056-13.473c0,0-10.615-11.026-15.926,3.673,2.056,10.211,3.673,9.4,3.269,17.557l6.538,17.948s.411,6.126,12.253,14.3,25.321,20.826,25.321,20.826-7.147,3.879-4.489,21.641c3.241,21.71-1.631,52.678-1.631,52.678v20.01s40.836-11.842,47.778-5.715,23.684,0,23.684,0-2.056-6.942-4.9-23.684.411-33.079.411-33.079,10.615-28.179,15.515-39.61-3.673-26.952-12.253-32.668-11.766-2.282-11.766-2.282S989.435,314.284,971.062,317.984Z" transform="translate(-298.118 -110.302)"/><path class="i" d="M958.914,253.658a7.224,7.224,0,0,0,.425,2.494,7.869,7.869,0,0,0,1.912,2.378c3.056,2.988,5.743,6.538,6.819,10.677a32.491,32.491,0,0,1,.644,8.635c-.178,11.725-.685,24.383-7.908,33.579-2.659,3.392-6.085,6.085-9.3,8.957a2.8,2.8,0,0,0-.98,1.309,2.446,2.446,0,0,0,.3,1.617c1.494,3.1,4.639,5.009,7.62,6.736a9.66,9.66,0,0,0,4.372,1.652c3.714.123,6.168-3.8,9.546-5.345,4.92-2.248,10.437.877,15.323,3.207a54,54,0,0,0,11.061,3.858c5.229,1.206,11.136,1.5,15.536-1.562a11.863,11.863,0,0,0,4.838-7.572c.356-1.994.3-4.31,1.809-5.66.781-.685,1.843-.987,2.68-1.6a8.3,8.3,0,0,0,2.481-4.112l5.03-13.754a11.3,11.3,0,0,0,.98-4.619c-.24-3.31-3.3-5.715-6.359-6.99s-6.455-1.9-9.155-3.838c-4.557-3.276-5.969-9.4-6.38-14.994a72.187,72.187,0,0,1,.082-11.547c.5-5.695,1.61-11.766-.925-16.892-2.707-5.482-8.779-8.271-14.391-10.656a19.716,19.716,0,0,0-6.723-1.946,19.168,19.168,0,0,0-7.237,1.528c-3.728,1.3-7.538,2.967-11.355,3.844-2.159.493-4.53.123-6.613.9C955.4,236.841,958.914,247.491,958.914,253.658Z" transform="translate(-321.975 -97.647)"/><path class="r" d="M958.914,252.468a7.224,7.224,0,0,0,.425,2.494,7.868,7.868,0,0,0,1.912,2.378c3.056,2.988,5.743,6.538,6.819,10.677a32.491,32.491,0,0,1,.644,8.635c-.178,11.725-.685,24.383-7.908,33.579-2.659,3.392-6.085,6.085-9.3,8.957a2.8,2.8,0,0,0-.98,1.309,2.446,2.446,0,0,0,.3,1.617c1.494,3.1,4.639,5.009,7.62,6.736a9.66,9.66,0,0,0,4.372,1.652c3.714.123,6.168-3.8,9.546-5.345,4.92-2.248,10.437.877,15.323,3.207a54,54,0,0,0,11.061,3.858c5.229,1.206,11.136,1.5,15.536-1.562a11.863,11.863,0,0,0,4.838-7.572c.356-1.994.3-4.31,1.809-5.66.781-.685,1.843-.987,2.68-1.6a8.3,8.3,0,0,0,2.481-4.112l5.03-13.754a11.3,11.3,0,0,0,.98-4.619c-.24-3.31-3.3-5.715-6.359-6.99s-6.455-1.9-9.155-3.838c-4.557-3.276-5.969-9.4-6.38-14.994a72.187,72.187,0,0,1,.082-11.547c.5-5.695,1.61-11.766-.925-16.892-2.707-5.482-8.779-8.271-14.391-10.656a19.715,19.715,0,0,0-6.723-1.946A19.168,19.168,0,0,0,981.014,228c-3.728,1.3-7.538,2.967-11.355,3.844-2.159.493-4.53.123-6.613.9C955.4,235.651,958.914,246.3,958.914,252.468Z" transform="translate(-321.975 -97.272)"/><path class="f" d="M938.76,425.231s3.255-.788,19.592-3.241,44.921,3.269,44.921,3.269" transform="translate(-318.281 -158.613)"/><path class="n" d="M283.47,517.1c2.357,8.546,10.533,13.74,10.533,13.74s4.365-8.655,2.008-17.2-10.533-13.74-10.533-13.74S281.12,508.569,283.47,517.1Z" transform="translate(-111.835 -183.325)"/></g></svg>