<svg height="512pt" viewBox="-39 0 512 512" width="512pt" xmlns="http://www.w3.org/2000/svg"><path d="m433.226562 215.089844c.011719.210937.011719.421875 0 .628906l-.980468 1.402344-116.027344 164.878906h-36.679688l115.058594-163.519531 16.84375-23.9375zm0 0" fill="#703700"/><path d="m153.847656 382h-36.679687l-116-164.839844-1.1601565-1.648437c-.01171875-.113281-.01171875-.210938 0-.320313l19.8437495-23.621094 18.785157 26.699219zm0 0" fill="#9a4c00"/><path d="m194.773438 382-70.089844-184.929688-25.003906 18.675782 63.011718 166.253906zm0 0" fill="#9a4c00"/><path d="m271.160156 382 62.789063-167.292969-25.882813-16.355469-68.988281 183.648438zm0 0" fill="#703700"/><path d="m201.789062 190h30v192h-30zm0 0" fill="#9a4c00"/><path d="m105.539062 365h222.5v147h-222.5zm0 0" fill="#ffaa20"/><path d="m433.226562 215.089844c.011719.210937.011719.421875 0 .628906l-.980468 1.402344-.839844.429687c-9.9375-16.53125-28.046875-27.582031-48.730469-27.582031-25.097656 0-46.386719 16.269531-53.917969 38.832031l-2.898437.121094c-7.492187-22.632813-28.820313-38.953125-53.960937-38.953125-25.25 0-46.652344 16.460938-54.050782 39.230469l-1.230468.050781-1.199219.050781c-7.371094-22.820312-28.789063-39.332031-54.082031-39.332031-25.386719 0-46.886719 16.640625-54.179688 39.609375l-2.1875.09375c-.101562-.113281-.210938-.222656-.3125-.320313-7.359375-22.851562-28.796875-39.382812-54.097656-39.382812-20.660156 0-38.742188 11.019531-48.691406 27.511719l-.699219-.320313-1.1601565-1.648437c-.01171875-.113281-.01171875-.210938 0-.320313.3593755-57.332031 22.8593755-111.171875 63.4296875-151.742187 40.921875-40.917969 95.320312-63.449219 153.179688-63.449219 57.859374 0 112.261718 22.53125 153.171874 63.449219 40.558594 40.550781 63.046876 94.351562 63.4375 151.640625zm0 0" fill="#67bc00"/><path d="m216.617188 190h15.171874v192h-15.171874zm0 0" fill="#703700"/><path d="m216.617188 365h111.421874v147h-111.421874zm0 0" fill="#ff8900"/><path d="m433.226562 215.089844c.011719.210937.011719.421875 0 .628906l-.980468 1.402344-.839844.429687c-9.9375-16.53125-28.046875-27.582031-48.730469-27.582031-25.097656 0-46.386719 16.269531-53.917969 38.832031l-2.898437.121094c-7.492187-22.632813-28.820313-38.953125-53.960937-38.953125-25.25 0-46.652344 16.460938-54.050782 39.230469l-1.230468.050781v-229.25c57.859374 0 112.261718 22.53125 153.171874 63.449219 40.558594 40.550781 63.046876 94.351562 63.4375 151.640625zm0 0" fill="#5eac00"/></svg>